<svg xmlns="http://www.w3.org/2000/svg" version="1.1" xmlns:xlink="http://www.w3.org/1999/xlink" xmlns:svgjs="http://svgjs.dev/svgjs" width="2000" height="404" viewBox="0 0 2000 404"><g transform="matrix(1,0,0,1,-1.2121212121212466,-0.06335553168642605)"><svg viewBox="0 0 396 80" data-background-color="#000000" preserveAspectRatio="xMidYMid meet" height="404" width="2000" xmlns="http://www.w3.org/2000/svg" xmlns:xlink="http://www.w3.org/1999/xlink"><g id="tight-bounds" transform="matrix(1,0,0,1,0.2400000000000091,0.012545649838898498)"><svg viewBox="0 0 395.52 79.97490870032222" height="79.97490870032222" width="395.52"><g><svg viewBox="0 0 395.52 79.97490870032222" height="79.97490870032222" width="395.52"><g><svg viewBox="0 0 395.52 79.97490870032222" height="79.97490870032222" width="395.52"><g><svg viewBox="0 0 395.52 79.97490870032222" height="79.97490870032222" width="395.52"><g><svg viewBox="0 0 395.52 79.97490870032222" height="79.97490870032222" width="395.52"><g id="textblocktransform"><svg viewBox="0 0 395.52 79.97490870032222" height="79.97490870032222" width="395.52" id="textblock"><g><svg viewBox="0 0 395.52 79.97490870032222" height="79.97490870032222" width="395.52"><g transform="matrix(1,0,0,1,0,0)"><svg width="395.52" viewBox="3.7 -37.1 186.19 37.65" height="79.97490870032222" data-palette-color="url(#ddd884f3-59a4-4ea4-9df2-83bff2235269)"></svg></g></svg></g></svg></g></svg></g><g></g></svg></g></svg></g></svg></g><defs></defs><mask id="364f0fd6-024a-4be6-96a8-893b85509c94"><g id="SvgjsG1126"><svg viewBox="0 0 395.52 79.97490870032222" height="79.97490870032222" width="395.52"><g><svg viewBox="0 0 395.52 79.97490870032222" height="79.97490870032222" width="395.52"><g><svg viewBox="0 0 395.52 79.97490870032222" height="79.97490870032222" width="395.52"><g><svg viewBox="0 0 395.52 79.97490870032222" height="79.97490870032222" width="395.52"><g><svg viewBox="0 0 395.52 79.97490870032222" height="79.97490870032222" width="395.52"><g id="SvgjsG1125"><svg viewBox="0 0 395.52 79.97490870032222" height="79.97490870032222" width="395.52" id="SvgjsSvg1124"><g><svg viewBox="0 0 395.52 79.97490870032222" height="79.97490870032222" width="395.52"><g transform="matrix(1,0,0,1,0,0)"><svg width="395.52" viewBox="3.7 -37.1 186.19 37.65" height="79.97490870032222" data-palette-color="url(#ddd884f3-59a4-4ea4-9df2-83bff2235269)"><path d="M22.55 0L22.55-14.7Q22.55-17.35 21.18-18.88 19.8-20.4 17.4-20.4L17.4-20.4Q14.6-20.3 13-18.3 11.4-16.3 11.4-13.25L11.4-13.25 9.45-13.25Q9.45-17.95 10.8-21.03 12.15-24.1 14.63-25.63 17.1-27.15 20.5-27.15L20.5-27.15Q23.5-27.15 25.68-25.88 27.85-24.6 29.03-22.3 30.2-20 30.2-16.85L30.2-16.85 30.2 0 22.55 0ZM41.35 0L41.35-14.7Q41.35-17.35 39.95-18.88 38.55-20.4 36.15-20.4L36.15-20.4Q33.4-20.3 31.8-18.3 30.2-16.3 30.2-13.25L30.2-13.25 28.25-13.25Q28.25-17.95 29.6-21.03 30.95-24.1 33.43-25.63 35.9-27.15 39.3-27.15L39.3-27.15Q42.3-27.15 44.48-25.88 46.65-24.6 47.83-22.3 49-20 49-16.85L49-16.85 49 0 41.35 0ZM3.7 0L3.7-26.85 11.4-26.85 11.4 0 3.7 0ZM59.7-15.6L73.2-15.6Q73.15-17.45 72.42-18.78 71.7-20.1 70.35-20.85 69-21.6 67.25-21.6L67.25-21.6Q65.3-21.6 63.85-20.6 62.4-19.6 61.6-17.85 60.8-16.1 60.8-13.8L60.8-13.8Q60.8-11.2 61.7-9.35 62.6-7.5 64.25-6.5 65.9-5.5 68.05-5.5L68.05-5.5Q71.95-5.5 74.85-8.4L74.85-8.4 78.9-4.4Q76.9-2.15 73.97-0.95 71.05 0.25 67.4 0.25L67.4 0.25Q63.1 0.25 59.95-1.45 56.8-3.15 55.07-6.23 53.35-9.3 53.35-13.35L53.35-13.35Q53.35-17.5 55.1-20.58 56.85-23.65 59.97-25.35 63.1-27.05 67.2-27.1L67.2-27.1Q71.95-27.1 74.97-25.13 78-23.15 79.37-19.58 80.75-16 80.4-11.1L80.4-11.1 59.7-11.1 59.7-15.6ZM105.1-24.25L102.45-19.15Q100.25-20.35 98.1-21.03 95.95-21.7 94.25-21.7L94.25-21.7Q92.9-21.7 92.02-21.2 91.15-20.7 91.15-19.6L91.15-19.6Q91.15-18.55 92.17-17.93 93.2-17.3 94.82-16.85 96.45-16.4 98.25-15.83 100.05-15.25 101.67-14.35 103.3-13.45 104.3-11.93 105.3-10.4 105.3-8L105.3-8Q105.3-5.3 103.85-3.43 102.4-1.55 99.9-0.63 97.4 0.3 94.35 0.3L94.35 0.3Q91.1 0.3 88.05-0.65 85-1.6 82.7-3.45L82.7-3.45 85.2-8.45Q87.3-6.85 89.82-5.98 92.35-5.1 94.55-5.1L94.55-5.1Q95.55-5.1 96.3-5.35 97.05-5.6 97.5-6.1 97.95-6.6 97.95-7.35L97.95-7.35Q97.95-8.45 96.95-9.13 95.95-9.8 94.35-10.28 92.75-10.75 90.95-11.28 89.15-11.8 87.57-12.7 86-13.6 85-15.08 84-16.55 84-18.9L84-18.9Q84-21.7 85.45-23.53 86.9-25.35 89.3-26.25 91.7-27.15 94.6-27.15L94.6-27.15Q97.4-27.15 100.12-26.4 102.85-25.65 105.1-24.25L105.1-24.25ZM129.89 0L129.89-14.7Q129.89-17.35 128.47-18.85 127.04-20.35 124.59-20.35L124.59-20.35Q121.69-20.3 120.04-18.3 118.39-16.3 118.39-13.25L118.39-13.25 116.49-13.25Q116.49-17.95 117.84-21.03 119.19-24.1 121.72-25.63 124.24-27.15 127.69-27.15L127.69-27.15Q130.74-27.15 132.97-25.88 135.19-24.6 136.39-22.3 137.59-20 137.59-16.85L137.59-16.85 137.59 0 129.89 0ZM110.69 0L110.69-37.1 118.39-37.1 118.39 0 110.69 0ZM151.64-35L151.64-14.4Q151.64-10.55 153.79-8.33 155.94-6.1 159.44-6.1L159.44-6.1Q162.84-6.1 164.92-8.33 166.99-10.55 166.99-14.4L166.99-14.4 166.99-35 174.89-35 174.89-14.4Q174.89-9.85 173.02-6.48 171.14-3.1 167.67-1.28 164.19 0.55 159.39 0.55L159.39 0.55Q154.59 0.55 151.06-1.28 147.54-3.1 145.64-6.48 143.74-9.85 143.74-14.4L143.74-14.4 143.74-35 151.64-35ZM181.99 0L181.99-35 189.89-35 189.89 0 181.99 0Z" opacity="1" transform="matrix(1,0,0,1,0,0)" fill="white" class="wordmark-text-0" id="SvgjsPath1123"></path></svg></g></svg></g></svg></g></svg></g><g></g></svg></g></svg></g></svg></g><defs><mask></mask></defs></svg><rect width="395.52" height="79.97490870032222" fill="black" stroke="none" visibility="hidden"></rect></g></mask><linearGradient x1="0" x2="1" y1="0.548" y2="0.55" id="ddd884f3-59a4-4ea4-9df2-83bff2235269"><stop stop-color="#ff6cab" offset="0"></stop><stop stop-color="#7366ff" offset="1"></stop></linearGradient><rect width="395.52" height="79.97490870032222" fill="url(#ddd884f3-59a4-4ea4-9df2-83bff2235269)" mask="url(#364f0fd6-024a-4be6-96a8-893b85509c94)" data-fill-palette-color="primary"></rect></svg><rect width="395.52" height="79.97490870032222" fill="none" stroke="none" visibility="hidden"></rect></g></svg></g></svg>